<?xml version="1.0" encoding="UTF-8"?><svg fill="#00FF00" enable-background="new 0 0 511.999 511.999" version="1.1" viewBox="0 0 512 512" xml:space="preserve" xmlns="http://www.w3.org/2000/svg"> <path d="m427.53 73.084-224.51 224.51c-6.051 6.051-15.863 6.051-21.914 0l-96.645-96.645-76.366 76.364 145.78 145.78c10.127 10.127 23.862 15.816 38.183 15.816 14.32 0 28.057-5.69 38.182-15.816l273.65-273.65-76.365-76.364z" fill="%23A5EB78"/> <g opacity=".1"> <path d="m478.65 124.2-288.89 288.89c-7.993 7.992-18.043 13.442-28.902 15.872 9.066 6.425 19.956 9.955 31.215 9.955 14.32 0 28.057-5.69 38.182-15.816l273.65-273.65-25.253-25.252z"/> </g> <path d="m192.07 447.01c-16.587 0-32.182-6.459-43.912-18.189l-145.78-145.78c-3.163-3.163-3.163-8.292 0-11.454l76.366-76.366c3.164-3.163 8.292-3.163 11.455 0l28.668 28.667c3.163 3.163 3.163 8.292 0 11.454-3.165 3.163-8.293 3.162-11.455 0l-22.94-22.94-64.911 64.911 140.06 140.06c8.669 8.669 20.195 13.443 32.456 13.443 12.26 0 23.785-4.775 32.456-13.443l186.95-186.95c3.163-3.163 8.291-3.164 11.455 0 3.163 3.163 3.163 8.292 0 11.454l-186.95 186.95c-11.731 11.729-27.326 18.188-43.911 18.188z"/> <path d="m192.07 310.23c-6.303 0-12.228-2.454-16.684-6.911l-45.068-45.068c-3.163-3.163-3.163-8.292 0-11.454 3.164-3.163 8.292-3.163 11.455 0l45.068 45.068c1.396 1.396 3.254 2.165 5.229 2.165s3.833-0.769 5.23-2.166l224.51-224.51c3.164-3.163 8.292-3.163 11.455 0l76.366 76.366c1.518 1.518 2.372 3.579 2.372 5.727s-0.853 4.209-2.372 5.727l-63.787 63.787c-3.164 3.163-8.292 3.162-11.455 0-3.163-3.163-3.163-8.292 0-11.454l58.061-58.06-64.91-64.91-218.78 218.78c-4.457 4.456-10.383 6.911-16.684 6.911z"/> </svg>